<?xml version="1.0" encoding="utf-8"?>
<!-- Generator: Adobe Illustrator 21.0.0, SVG Export Plug-In . SVG Version: 6.00 Build 0)  -->
<svg version="1.1" id="Layer_1" xmlns="http://www.w3.org/2000/svg" xmlns:xlink="http://www.w3.org/1999/xlink" x="0px" y="0px"
	 viewBox="0 0 40 15" style="enable-background:new 0 0 40 15;" xml:space="preserve">
<style type="text/css">
	.st0{fill:#FF6D2C;}
</style>
<g>
	<path class="st0" d="M17.6,2.2c0,0.4-0.3,0.7-0.7,0.7H0.7C0.3,3,0,2.7,0,2.2V0.8C0,0.4,0.3,0,0.7,0h16.2c0.4,0,0.7,0.3,0.7,0.7V2.2
		z M17.6,8.1c0,0.4-0.3,0.7-0.7,0.7H0.7C0.3,8.9,0,8.5,0,8.1V6.7c0-0.4,0.3-0.7,0.7-0.7h16.2c0.4,0,0.7,0.3,0.7,0.7V8.1z M17.6,14
		c0,0.4-0.3,0.7-0.7,0.7H0.7C0.3,14.8,0,14.4,0,14v-1.5c0-0.4,0.3-0.7,0.7-0.7h16.2c0.4,0,0.7,0.3,0.7,0.7V14z"/>
</g>
</svg>
