<?xml version="1.0" encoding="utf-8"?>
<!-- Generator: Adobe Illustrator 21.0.0, SVG Export Plug-In . SVG Version: 6.00 Build 0)  -->
<svg version="1.1" id="Layer_1" xmlns="http://www.w3.org/2000/svg" xmlns:xlink="http://www.w3.org/1999/xlink" x="0px" y="0px"
	 viewBox="0 0 40 15" style="enable-background:new 0 0 40 15;" xml:space="preserve">
<style type="text/css">
	.st0{fill:#FF6D2C;}
</style>
<g>
	<path class="st0" d="M14.5,12.9l-1.6,1.6c-0.2,0.2-0.5,0.3-0.8,0.3c-0.3,0-0.6-0.1-0.8-0.3L7.7,11l-3.5,3.5
		c-0.2,0.2-0.5,0.3-0.8,0.3s-0.6-0.1-0.8-0.3l-1.6-1.6c-0.2-0.2-0.3-0.5-0.3-0.8s0.1-0.6,0.3-0.8l3.5-3.5L0.9,4.1
		C0.7,3.9,0.5,3.6,0.5,3.3s0.1-0.6,0.3-0.8l1.6-1.6C2.7,0.7,3,0.5,3.3,0.5s0.6,0.1,0.8,0.3l3.5,3.5l3.5-3.5c0.2-0.2,0.5-0.3,0.8-0.3
		c0.3,0,0.6,0.1,0.8,0.3l1.6,1.6c0.2,0.2,0.3,0.5,0.3,0.8c0,0.3-0.1,0.6-0.3,0.8L11,7.7l3.5,3.5c0.2,0.2,0.3,0.5,0.3,0.8
		S14.7,12.6,14.5,12.9z"/>
</g>
</svg>
