<svg xmlns="http://www.w3.org/2000/svg" viewBox="0 0 546.57 125.84"><defs><style>.cls-1{fill:#fcb22a;}.cls-2{fill:#fed675;}.cls-3{fill:#231f20;}</style></defs><title>Asset 3</title><g id="Layer_2" data-name="Layer 2"><g id="Layer_1-2" data-name="Layer 1"><path class="cls-1" d="M41.46.1C19.34,1.64,1,20.71,0,43.44-.87,64.15,15.75,80.86,26.37,96.19l10.29-.66L40,95.31l-.11-40.48H45l0,40.16,3.35-.22,10.13-.65c10.26-16,25.68-32.9,25.91-52.58C84.72,17.41,65.49-1.57,41.46.1Zm-5,51.33h-7.6c-6.69,0-7-6.34-7-7.05v-.1a6.05,6.05,0,0,1,1.46-4.07c1.19-1.28,3.11-1.93,5.69-1.93a7.7,7.7,0,0,1,5.7,1.94,6.94,6.94,0,0,1,1.79,4.53Zm34.7,16.33C66.47,75.57,60.72,83,56.25,90l-7.82.49,0-35.65H56c8.12,0,10.37-6.77,10.43-10.38a9.49,9.49,0,0,0-2.37-6.57c-1.86-2-4.62-3-8.18-3s-6.23,1-8.16,3A10.32,10.32,0,0,0,45,44.74v6.69h-5.1V44.78a10.33,10.33,0,0,0-2.73-6.92c-1.93-2-4.68-3-8.16-3s-6.32,1-8.18,3a9.49,9.49,0,0,0-2.37,6.57c.06,3.61,2.31,10.38,10.43,10.38h7.6l.17,36.39-7,.44-1,.06c-1.4.09-8.35-12-9.33-13.35C13.25,69.89,6.18,61.16,4.84,50.14v-.07c-.06-.47-.11-.95-.15-1.42,0-.23,0-.46,0-.69s0-.6-.06-.9c0-.55,0-1.11,0-1.67C4.56,23.72,22,5.44,43.08,4.76A35.7,35.7,0,0,1,59.41,8.06a35.35,35.35,0,0,1,10.16,7.17,35.92,35.92,0,0,1,3.76,4.49q.7,1,1.33,2a36.51,36.51,0,0,1,2.41,4.65q.3.71.58,1.43.36.94.67,1.9t.5,1.68c.21.79.4,1.59.57,2.41q.08.41.16.83.27,1.52.42,3.08a39.45,39.45,0,0,1,.18,4.17,40.87,40.87,0,0,1-6.18,21C73.09,64.55,72.17,66.16,71.21,67.76ZM48.41,51.43V44.7a6.93,6.93,0,0,1,1.79-4.49,7.7,7.7,0,0,1,5.7-1.94c2.57,0,4.47.64,5.67,1.91A6.09,6.09,0,0,1,63,44.27v.1c0,.29-.17,7.05-7,7.05Z"/><path class="cls-2" d="M59.79,100.65,25.73,104.5a2,2,0,0,1-2.31-2.05h0a2.67,2.67,0,0,1,2.31-2.57L59.79,96a2,2,0,0,1,2.31,2.05h0A2.67,2.67,0,0,1,59.79,100.65Z"/><path class="cls-2" d="M58.52,108.26,27,111.83a2,2,0,0,1-2.31-2.05h0A2.67,2.67,0,0,1,27,107.2l31.54-3.57a2,2,0,0,1,2.31,2.05h0A2.67,2.67,0,0,1,58.52,108.26Z"/><path class="cls-2" d="M56.5,116,29,119.07A2,2,0,0,1,26.7,117h0A2.67,2.67,0,0,1,29,114.44l27.49-3.11a2,2,0,0,1,2.31,2.05h0A2.67,2.67,0,0,1,56.5,116Z"/><path class="cls-2" d="M50.27,124.13l-15,1.7a2,2,0,0,1-2.31-2.05h0a2.67,2.67,0,0,1,2.31-2.57l15-1.7a2,2,0,0,1,2.31,2.05h0A2.67,2.67,0,0,1,50.27,124.13Z"/><path class="cls-3" d="M115.92,44.95H101.24V36.38h39.35v8.56H126V85.11H115.92Z"/><path class="cls-3" d="M146.77,36.38h36v8.36H156.83V55.41h23.92v8.36H156.83v13h27v8.36h-37Z"/><path class="cls-3" d="M233.15,69.07c-.68,9.51-6,17.13-21,17.13-14.68,0-22.09-7.27-22.09-25.21,0-17.53,7-25.69,22.16-25.69,12,0,19.3,5.1,20.93,16.24H223.09c-1.16-4.35-2.58-7.68-10.87-7.68s-12,5-12,18c0,10.13,2.72,15.77,12.1,15.77,6.73,0,9.92-2.11,10.74-8.56Z"/><path class="cls-3" d="M241,36.38h10.26l19,32.15V36.38h10.06V85.11H270.18L251,52.76V85.11H241Z"/><path class="cls-3" d="M289.55,36.38h10.06V85.11H289.55Z"/><path class="cls-3" d="M341.13,85.11c-.88-3.4-1.9-6.86-2.92-10.33H318.43c-1,3.47-2,6.93-2.85,10.33H304.91a406.1,406.1,0,0,1,17.94-48.73h11.28a379.58,379.58,0,0,1,18,48.73Zm-20-18.69h14.48c-2.11-6.25-4.49-12.57-7.2-18.89C325.57,53.85,323.19,60.17,321.08,66.42Z"/><path class="cls-3" d="M402.84,64.65c0,16.17-8.9,21.54-22.84,21.54-12.1,0-24-4.55-24-25.49,0-22.09,13.12-25.42,24-25.42,13.12,0,21.14,4.83,22.09,16.24H392c-.61-4.76-3.26-7.68-11.76-7.68-9.31,0-14.07,3.53-14.07,16.92,0,14.07,5.17,16.85,13.86,16.85,9.92,0,12.71-3.13,12.71-10.33H381.5V58.95h21.34Z"/><path class="cls-3" d="M411.06,36.38h21.14c10.13,0,19,.27,19,14.61,0,9.51-3.94,13-9.51,14.34l12.71,19.78H442.12l-12-19.17h-9V85.11H411.06Zm10.06,8.36V57.59h9c8.09,0,10.81-.82,10.81-6.93,0-4.89-1.7-5.91-10.19-5.91Z"/><path class="cls-3" d="M470,36.38V62.07c0,12.37.54,15.56,9.65,15.56,8.36,0,9.38-2.65,9.38-15.16V36.38h10.06V68.6c0,15-7.68,17.6-19.1,17.6-12.1,0-20-2.92-20-17.74V36.38Z"/><path class="cls-3" d="M509.19,36.38H527.6c10.13,0,19,1,19,15.29,0,13.8-8.22,15.63-17.87,15.63h-9.45V85.11H509.19Zm10.06,8.36v14.2h6.32c8.09,0,10.81-.82,10.81-7.68,0-5.51-1.77-6.52-10.19-6.52Z"/><path class="cls-1" d="M140.43,116.64c.19,2.4.54,3.68,5.09,3.68,2.4,0,4.16-.35,4.16-2.69,0-1.41-.64-2.18-2.66-2.72l-5.57-1.5c-2.79-.74-5.25-2.08-5.25-6.27,0-3.3,1.5-6.75,8.61-6.75,6.75,0,8.87,3.14,9,7.23H149c-.22-1.92-.32-3.2-4.42-3.2-2.4,0-3.62.45-3.62,2.27,0,1.67,1,2.15,2.34,2.5l5.12,1.38c3.27.86,6,2.14,6,6.72,0,6.47-5.54,7.07-9,7.07-7.49,0-9.54-2.95-9.83-7.72Z"/><path class="cls-1" d="M167.87,124.26c-4.35,0-8.61-1.7-8.61-8.87,0-6.08,3.07-8.87,8.64-8.87s8.68,2.79,8.68,8.87S173.37,124.26,167.87,124.26Zm0-14.09c-3,0-4.07,1.34-4.07,5.22s1.09,5.22,4.1,5.22,4.07-1.28,4.07-5.25C172,111.58,171,110.17,167.9,110.17Z"/><path class="cls-1" d="M182.28,100.89h4.45v23h-4.45Z"/><path class="cls-1" d="M204.53,122.05c-1.15,1.86-3.23,2.21-5.22,2.21-4.07,0-5.83-1.5-5.83-6.34V107h4.45v10.66c0,2.27.7,3,2.95,3s3.39-.77,3.39-3.91V107h4.45v16.87h-4.19Z"/><path class="cls-1" d="M230,112.67h-4.42c-.35-1.63-.9-2.47-3.17-2.47s-3.42.86-3.42,5.22,1,5.19,3.2,5.19c2.43,0,3.26-1.06,3.39-2.75h4.45c-.35,3.78-2,6.4-7.62,6.4-6.69,0-8-3.78-8-8.68,0-5.38,1.6-9,8.23-9,4.87,0,6.95,2,7.39,6.11Z"/><path class="cls-1" d="M237.86,100.44c2.08,0,2.56.74,2.56,2.4s-.48,2.37-2.56,2.37-2.53-.7-2.53-2.37S235.78,100.44,237.86,100.44ZM235.65,107h4.45v16.87h-4.45Z"/><path class="cls-1" d="M254.44,124.26c-4.35,0-8.61-1.7-8.61-8.87,0-6.08,3.07-8.87,8.64-8.87s8.68,2.79,8.68,8.87S259.95,124.26,254.44,124.26Zm0-14.09c-3,0-4.07,1.34-4.07,5.22s1.09,5.22,4.1,5.22,4.07-1.28,4.07-5.25C258.57,111.58,257.55,110.17,254.47,110.17Z"/><path class="cls-1" d="M279.61,114.14c0-2.59,0-3.94-2.88-3.94-3.17,0-3.52,1.67-3.52,5.63v8h-4.45V107H273v2.18c1.22-1.63,2.53-2.59,5.63-2.59,4.32,0,5.44,1.86,5.44,7v10.31h-4.45Z"/><path class="cls-1" d="M305.16,119c-.54,3.87-3.11,5.25-7.68,5.25-5.22,0-8.07-1.79-8.07-9,0-4.83,1.28-8.68,8.26-8.68,5.92,0,7.68,2.75,7.68,10.08H294c.16,3.2,1,4,3.46,4,1.7,0,2.72-.32,3.17-1.6Zm-4.26-5.19c-.19-3.07-1.41-3.62-3.46-3.62-2.59,0-3.26.9-3.42,3.62Z"/><path class="cls-1" d="M314.22,118.66c.16,1.82,1.15,2.3,3.55,2.3s3.14-.45,3.14-1.63c0-1-.45-1.31-2-1.73l-4.67-1.12c-2.46-.61-4-1.67-4-4.64,0-3.39,2-5.28,7.4-5.28,4.13,0,6.95,1.12,7.17,5.22H320.4c-.22-1.5-.74-1.92-2.79-1.92-2.34,0-2.88.54-2.88,1.5,0,.8.45,1.22,1.86,1.57l4.16,1c3.07.74,4.61,1.92,4.61,4.77,0,4-3,5.57-7.62,5.57-4.35,0-7.78-1.44-8-5.6Z"/><path class="cls-1" d="M342.59,100.89h16.93v3.94h-12.2v5h11.27v3.94H347.33v6.11H360v3.94H342.59Z"/><path class="cls-1" d="M366.12,100.89h4.45v23h-4.45Z"/><path class="cls-1" d="M391.76,119c-.54,3.87-3.11,5.25-7.68,5.25-5.22,0-8.07-1.79-8.07-9,0-4.83,1.28-8.68,8.26-8.68,5.92,0,7.68,2.75,7.68,10.08H380.59c.16,3.2,1,4,3.46,4,1.7,0,2.72-.32,3.17-1.6Zm-4.26-5.19c-.19-3.07-1.41-3.62-3.46-3.62-2.59,0-3.26.9-3.42,3.62Zm-2.75-13.73h4.93l-4.58,4.67H382Z"/><path class="cls-1" d="M412.13,112.67h-4.42c-.35-1.63-.9-2.47-3.17-2.47s-3.42.86-3.42,5.22,1,5.19,3.2,5.19c2.43,0,3.26-1.06,3.39-2.75h4.45c-.35,3.78-2,6.4-7.62,6.4-6.69,0-8-3.78-8-8.68,0-5.38,1.6-9,8.23-9,4.87,0,6.95,2,7.39,6.11Z"/><path class="cls-1" d="M425.41,110.56h-2.88v7.23c0,2.37,0,2.82,1.79,2.82a7.91,7.91,0,0,0,1.09-.06v3.3a21.89,21.89,0,0,1-3.17.26c-4.16,0-4.16-1.7-4.16-6.24v-7.3h-2.21V107h2.21v-4.16h4.45V107h2.88Z"/><path class="cls-1" d="M430.63,123.84V107h4.19v2.11a4.34,4.34,0,0,1,4.35-2.47,4.92,4.92,0,0,1,1.15.1V111a8.43,8.43,0,0,0-1.41-.1c-3.52,0-3.84,2.88-3.84,6.72v6.24Z"/><path class="cls-1" d="M447.79,100.44c2.08,0,2.56.74,2.56,2.4s-.48,2.37-2.56,2.37-2.53-.7-2.53-2.37S445.71,100.44,447.79,100.44ZM445.59,107H450v16.87h-4.45Z"/><path class="cls-1" d="M471.42,112.67H467c-.35-1.63-.9-2.47-3.17-2.47s-3.42.86-3.42,5.22,1,5.19,3.2,5.19c2.43,0,3.26-1.06,3.39-2.75h4.45c-.35,3.78-2,6.4-7.62,6.4-6.69,0-8-3.78-8-8.68,0-5.38,1.6-9,8.23-9,4.87,0,6.95,2,7.39,6.11Z"/><path class="cls-1" d="M476.36,112.09c.22-4.35,2.72-5.54,7.27-5.54s7.14,1.25,7.14,4.93v12.36H486.5v-1.28c-.86.9-2.5,1.7-5.19,1.7-4,0-5.47-1.79-5.47-4.67,0-3.75,2.43-5.15,4.9-5.54l5.57-.86v-1c0-1.57-.8-2-2.88-2s-2.66.51-2.88,2Zm10,4-3.1.51c-1.7.26-2.91.61-2.91,2.4,0,1.28.64,2,2.63,2,2.72,0,3.39-1.47,3.39-3.55Z"/><path class="cls-1" d="M500.46,118.66c.16,1.82,1.15,2.3,3.55,2.3s3.14-.45,3.14-1.63c0-1-.45-1.31-2-1.73l-4.67-1.12c-2.46-.61-4-1.67-4-4.64,0-3.39,2-5.28,7.4-5.28,4.13,0,6.95,1.12,7.17,5.22h-4.45c-.22-1.5-.74-1.92-2.79-1.92-2.34,0-2.88.54-2.88,1.5,0,.8.45,1.22,1.86,1.57l4.16,1c3.07.74,4.61,1.92,4.61,4.77,0,4-3,5.57-7.62,5.57-4.35,0-7.78-1.44-8-5.6Z"/></g></g></svg>