<svg xmlns="http://www.w3.org/2000/svg" viewBox="0 0 255.18 172.33"><defs><style>.cls-1{fill:#fcb22a;}.cls-2{fill:#f8be62;}.cls-3{fill:#fff;}</style></defs><title>img_logoFooter_darkBG</title><g id="Layer_2" data-name="Layer 2"><g id="Layer_1-2" data-name="Layer 1"><path class="cls-1" d="M127.46.09C109,1.37,93.69,17.3,92.86,36.28c-.76,17.29,13.13,31.25,22,44.06l8.59-.55,2.81-.18-.09-33.81h4.26l0,33.54,2.8-.18,8.46-.54c8.57-13.39,21.45-27.47,21.64-43.92C163.59,14.54,147.53-1.31,127.46.09ZM123.32,43H117c-5.59,0-5.86-5.29-5.87-5.89V37a5.05,5.05,0,0,1,1.22-3.4A6.24,6.24,0,0,1,117.07,32a6.43,6.43,0,0,1,4.76,1.62,5.79,5.79,0,0,1,1.49,3.78Zm29,13.64c-4,6.52-8.76,12.73-12.49,18.57l-6.53.41,0-29.77h6.35c6.78,0,8.66-5.65,8.71-8.67a7.93,7.93,0,0,0-2-5.48c-1.56-1.67-3.85-2.52-6.83-2.52a9.11,9.11,0,0,0-6.82,2.5,8.62,8.62,0,0,0-2.28,5.74V43h-4.26V37.4a8.63,8.63,0,0,0-2.28-5.78,9.11,9.11,0,0,0-6.82-2.5c-3,0-5.28.85-6.83,2.52a7.93,7.93,0,0,0-2,5.48c.05,3,1.93,8.67,8.71,8.67h6.35l.14,30.39-5.81.36-.81.05c-1.17.07-7-10-7.8-11.15-5.15-7.07-11-14.37-12.17-23.57v-.06c0-.39-.09-.79-.12-1.19,0-.19,0-.39,0-.58s0-.5,0-.76c0-.46,0-.93,0-1.4,0-18.09,14.56-33.36,32.18-33.93a29.81,29.81,0,0,1,13.64,2.76,29.53,29.53,0,0,1,8.48,6,30,30,0,0,1,3.14,3.75q.58.82,1.11,1.69a30.5,30.5,0,0,1,2,3.89q.25.59.49,1.2.3.78.56,1.59t.41,1.41c.18.66.34,1.33.47,2q.07.35.13.69.22,1.27.35,2.57a33,33,0,0,1,.15,3.48,34.13,34.13,0,0,1-5.16,17.56C153.88,53.91,153.11,55.26,152.3,56.59ZM133.26,43V37.33a5.79,5.79,0,0,1,1.49-3.75A6.43,6.43,0,0,1,139.52,32a6.26,6.26,0,0,1,4.73,1.59A5.08,5.08,0,0,1,145.49,37v.08c0,.24-.14,5.89-5.87,5.89Z"/><path class="cls-2" d="M142.76,84.06l-28.44,3.22a1.7,1.7,0,0,1-1.93-1.71h0a2.23,2.23,0,0,1,1.93-2.15l28.44-3.22a1.7,1.7,0,0,1,1.93,1.71h0A2.23,2.23,0,0,1,142.76,84.06Z"/><path class="cls-2" d="M141.71,90.41l-26.34,3a1.7,1.7,0,0,1-1.93-1.71h0a2.23,2.23,0,0,1,1.93-2.15l26.34-3a1.7,1.7,0,0,1,1.93,1.71h0A2.23,2.23,0,0,1,141.71,90.41Z"/><path class="cls-2" d="M140,96.84l-23,2.6a1.7,1.7,0,0,1-1.93-1.71h0a2.23,2.23,0,0,1,1.93-2.15L140,93A1.7,1.7,0,0,1,142,94.69h0A2.23,2.23,0,0,1,140,96.84Z"/><path class="cls-2" d="M134.82,103.67l-12.55,1.42a1.7,1.7,0,0,1-1.93-1.71h0a2.23,2.23,0,0,1,1.93-2.15l12.55-1.42a1.7,1.7,0,0,1,1.93,1.71h0A2.23,2.23,0,0,1,134.82,103.67Z"/><path class="cls-3" d="M8.41,126.83H0v-4.91H22.55v4.91H14.17v23H8.41Z"/><path class="cls-3" d="M26.09,121.92h20.6v4.79H31.85v6.11H45.56v4.79H31.85v7.44H47.31v4.79H26.09Z"/><path class="cls-3" d="M75.58,140.65c-.39,5.45-3.43,9.81-12,9.81-8.41,0-12.66-4.17-12.66-14.45,0-10,4-14.72,12.7-14.72,6.85,0,11.06,2.92,12,9.31H69.82c-.66-2.49-1.48-4.4-6.23-4.4s-6.85,2.84-6.85,10.32c0,5.8,1.56,9,6.93,9,3.86,0,5.69-1.21,6.15-4.91Z"/><path class="cls-3" d="M80.06,121.92h5.88l10.86,18.42V121.92h5.76v27.92H96.81l-11-18.54v18.54H80.06Z"/><path class="cls-3" d="M107.9,121.92h5.76v27.92H107.9Z"/><path class="cls-3" d="M137.46,149.84c-.51-1.95-1.09-3.93-1.67-5.92H124.45c-.58,2-1.13,4-1.63,5.92H116.7A232.82,232.82,0,0,1,127,121.92h6.46a217.61,217.61,0,0,1,10.32,27.92ZM126,139.13h8.29c-1.21-3.58-2.57-7.2-4.13-10.83C128.54,131.93,127.18,135.55,126,139.13Z"/><path class="cls-3" d="M172.82,138.12c0,9.27-5.1,12.34-13.08,12.34-6.93,0-13.75-2.61-13.75-14.6,0-12.66,7.52-14.56,13.75-14.56,7.51,0,12.11,2.76,12.66,9.31h-5.76c-.35-2.73-1.87-4.4-6.74-4.4-5.33,0-8.06,2-8.06,9.7,0,8.06,3,9.66,7.94,9.66,5.69,0,7.28-1.79,7.28-5.92h-6.46v-4.79h12.23Z"/><path class="cls-3" d="M177.53,121.92h12.11c5.8,0,10.86.16,10.86,8.37,0,5.45-2.26,7.48-5.45,8.22l7.28,11.33h-7l-6.85-11h-5.18v11h-5.76Zm5.76,4.79v7.36h5.18c4.63,0,6.19-.47,6.19-4,0-2.8-1-3.39-5.84-3.39Z"/><path class="cls-3" d="M211.33,121.92v14.72c0,7.09.31,8.92,5.53,8.92,4.79,0,5.37-1.52,5.37-8.68v-15H228v18.46c0,8.61-4.4,10.09-10.94,10.09-6.93,0-11.49-1.67-11.49-10.16V121.92Z"/><path class="cls-3" d="M233.76,121.92h10.55c5.8,0,10.86.55,10.86,8.76,0,7.9-4.71,9-10.24,9h-5.41v10.2h-5.76Zm5.76,4.79v8.14h3.62c4.63,0,6.19-.47,6.19-4.4,0-3.15-1-3.74-5.84-3.74Z"/><path class="cls-1" d="M22.46,167.91c.11,1.38.31,2.11,2.92,2.11,1.38,0,2.38-.2,2.38-1.54,0-.81-.37-1.25-1.52-1.56L23,166.06c-1.6-.42-3-1.19-3-3.6,0-1.89.86-3.87,4.93-3.87,3.87,0,5.08,1.8,5.14,4.15H27.39c-.13-1.1-.18-1.83-2.53-1.83-1.37,0-2.07.26-2.07,1.3s.57,1.23,1.34,1.43l2.93.79c1.87.5,3.45,1.23,3.45,3.85,0,3.7-3.17,4.05-5.14,4.05-4.29,0-5.47-1.69-5.63-4.42Z"/><path class="cls-1" d="M38.18,172.27c-2.49,0-4.93-1-4.93-5.08,0-3.48,1.76-5.08,5-5.08s5,1.6,5,5.08S41.33,172.27,38.18,172.27Zm0-8.07c-1.71,0-2.33.77-2.33,3s.62,3,2.35,3,2.33-.73,2.33-3S40,164.2,38.2,164.2Z"/><path class="cls-1" d="M46.43,158.88H49V172H46.43Z"/><path class="cls-1" d="M59.18,171a3.23,3.23,0,0,1-3,1.27c-2.33,0-3.34-.86-3.34-3.63v-6.27H55.4v6.11c0,1.3.4,1.71,1.69,1.71s1.94-.44,1.94-2.24v-5.58h2.55V172h-2.4Z"/><path class="cls-1" d="M73.8,165.63H71.27c-.2-.94-.51-1.41-1.82-1.41s-2,.5-2,3,.59,3,1.83,3,1.87-.6,1.94-1.58h2.55c-.2,2.16-1.17,3.67-4.37,3.67-3.83,0-4.58-2.16-4.58-5,0-3.08.92-5.17,4.71-5.17,2.79,0,4,1.14,4.24,3.5Z"/><path class="cls-1" d="M78.28,158.63c1.19,0,1.47.42,1.47,1.38s-.27,1.36-1.47,1.36-1.45-.4-1.45-1.36S77.09,158.63,78.28,158.63ZM77,162.37h2.55V172H77Z"/><path class="cls-1" d="M87.78,172.27c-2.49,0-4.93-1-4.93-5.08,0-3.48,1.76-5.08,5-5.08s5,1.6,5,5.08S90.94,172.27,87.78,172.27Zm0-8.07c-1.71,0-2.33.77-2.33,3s.62,3,2.35,3,2.33-.73,2.33-3S89.56,164.2,87.8,164.2Z"/><path class="cls-1" d="M102.2,166.48c0-1.49,0-2.26-1.65-2.26-1.82,0-2,1-2,3.23V172H96v-9.67h2.42v1.25a3.43,3.43,0,0,1,3.23-1.49c2.48,0,3.12,1.06,3.12,4V172H102.2Z"/><path class="cls-1" d="M116.84,169.27c-.31,2.22-1.78,3-4.4,3-3,0-4.62-1-4.62-5.17,0-2.77.73-5,4.73-5,3.39,0,4.4,1.58,4.4,5.78h-6.51c.09,1.83.55,2.27,2,2.27,1,0,1.56-.18,1.82-.92Zm-2.44-3c-.11-1.76-.81-2.07-2-2.07-1.49,0-1.87.51-2,2.07Z"/><path class="cls-1" d="M122,169.06c.09,1,.66,1.32,2,1.32s1.8-.26,1.8-.94-.26-.75-1.14-1l-2.68-.64c-1.41-.35-2.27-1-2.27-2.66,0-1.94,1.16-3,4.24-3,2.37,0,4,.64,4.11,3h-2.55c-.13-.86-.42-1.1-1.6-1.1-1.34,0-1.65.31-1.65.86s.26.7,1.06.9l2.38.57c1.76.42,2.64,1.1,2.64,2.73,0,2.27-1.72,3.19-4.36,3.19s-4.46-.83-4.57-3.21Z"/><path class="cls-1" d="M138.29,158.88H148v2.26h-7V164h6.46v2.26H141v3.5h7.28V172h-10Z"/><path class="cls-1" d="M151.78,158.88h2.55V172h-2.55Z"/><path class="cls-1" d="M166.47,169.27c-.31,2.22-1.78,3-4.4,3-3,0-4.62-1-4.62-5.17,0-2.77.73-5,4.73-5,3.39,0,4.4,1.58,4.4,5.78h-6.51c.09,1.83.55,2.27,2,2.27,1,0,1.56-.18,1.82-.92Zm-2.44-3c-.11-1.76-.81-2.07-2-2.07-1.49,0-1.87.51-2,2.07Zm-1.58-7.87h2.82l-2.62,2.68H160.9Z"/><path class="cls-1" d="M178.14,165.63h-2.53c-.2-.94-.51-1.41-1.82-1.41s-2,.5-2,3,.59,3,1.83,3,1.87-.6,1.94-1.58h2.55c-.2,2.16-1.17,3.67-4.37,3.67-3.83,0-4.58-2.16-4.58-5,0-3.08.92-5.17,4.71-5.17,2.79,0,4,1.14,4.24,3.5Z"/><path class="cls-1" d="M185.75,164.42H184.1v4.15c0,1.36,0,1.61,1,1.61a4.53,4.53,0,0,0,.62,0V172a12.51,12.51,0,0,1-1.82.15c-2.38,0-2.38-1-2.38-3.58v-4.18h-1.27v-2.05h1.27V160h2.55v2.38h1.65Z"/><path class="cls-1" d="M188.75,172v-9.67h2.4v1.21a2.49,2.49,0,0,1,2.49-1.41,2.81,2.81,0,0,1,.66.06v2.44a4.82,4.82,0,0,0-.81-.06c-2,0-2.2,1.65-2.2,3.85V172Z"/><path class="cls-1" d="M198.58,158.63c1.19,0,1.47.42,1.47,1.38s-.27,1.36-1.47,1.36-1.45-.4-1.45-1.36S197.39,158.63,198.58,158.63Zm-1.27,3.74h2.55V172h-2.55Z"/><path class="cls-1" d="M212.12,165.63h-2.53c-.2-.94-.51-1.41-1.82-1.41s-2,.5-2,3,.59,3,1.83,3,1.87-.6,1.94-1.58h2.55c-.2,2.16-1.17,3.67-4.37,3.67-3.83,0-4.58-2.16-4.58-5,0-3.08.92-5.17,4.71-5.17,2.79,0,4,1.14,4.24,3.5Z"/><path class="cls-1" d="M214.94,165.3c.13-2.49,1.56-3.17,4.16-3.17s4.09.72,4.09,2.82V172h-2.44v-.73a4,4,0,0,1-3,1c-2.31,0-3.14-1-3.14-2.68a3,3,0,0,1,2.81-3.17l3.19-.5v-.59c0-.9-.46-1.16-1.65-1.16s-1.52.29-1.65,1.12Zm5.7,2.27-1.78.29c-1,.15-1.67.35-1.67,1.38,0,.73.37,1.14,1.5,1.14,1.56,0,1.94-.84,1.94-2Z"/><path class="cls-1" d="M228.76,169.06c.09,1,.66,1.32,2,1.32s1.8-.26,1.8-.94-.26-.75-1.14-1l-2.68-.64c-1.41-.35-2.27-1-2.27-2.66,0-1.94,1.16-3,4.24-3,2.37,0,4,.64,4.11,3H232.3c-.13-.86-.42-1.1-1.6-1.1-1.34,0-1.65.31-1.65.86s.26.7,1.06.9l2.38.57c1.76.42,2.64,1.1,2.64,2.73,0,2.27-1.72,3.19-4.36,3.19s-4.46-.83-4.57-3.21Z"/></g></g></svg>